<?xml version="1.0"?>
<svg xmlns="http://www.w3.org/2000/svg" width="83" height="40" viewBox="0 0 83 40" fill="none">
<path d="M40.1619 0.225452C37.7597 0.866039 36.4931 2.36559 35.4449 5.7869C34.717 8.18909 34.3821 11.4503 34.8043 11.8725C35.0809 12.1491 35.5031 12.0763 35.6487 11.7123C35.7215 11.5376 35.9544 10.6495 36.1583 9.76144C36.6096 7.65042 37.323 5.23367 37.7597 4.24367C38.2256 3.19544 39.2884 2.08897 40.1328 1.75412C41.05 1.40471 43.525 1.41927 44.2966 1.78324C44.9663 2.10353 45.636 2.87515 46.0728 3.80691C46.5678 4.85514 46.5387 6.29646 45.9854 9.0335C45.4322 11.7269 44.7479 13.736 43.2338 17.0699C41.9672 19.8361 41.4722 20.7824 40.5696 22.1218C39.5505 23.6359 39.9581 24.4221 41.3266 23.5486C41.8362 23.2283 42.3603 23.039 43.0882 22.9226C44.2093 22.7479 44.384 22.5877 44.1073 21.9908C43.9618 21.6559 43.8744 21.6268 43.3649 21.6996C43.0446 21.7433 42.7825 21.7433 42.7825 21.7142C42.7825 21.6851 43.2921 20.6368 43.9326 19.3702C45.8544 15.5122 47.4413 10.6204 47.7616 7.49027C48.1401 3.96705 47.1792 1.50662 44.9954 0.443834C44.2675 0.0944252 43.9618 0.03619 42.6369 0.00707245C41.545 -0.0220451 40.8462 0.03619 40.1619 0.225452Z" fill="black"/>
<path d="M72.6718 11.8286C69.9056 12.4255 68.9739 13.663 70.0221 15.3082C70.2987 15.7595 70.4152 16.0652 70.3278 16.1526C70.255 16.2254 69.3961 16.7786 68.4206 17.361C66.3533 18.5985 64.5189 19.2682 61.5634 19.836C60.4861 20.0398 59.4524 20.2436 59.2777 20.2873C59.0448 20.331 58.9429 20.462 58.9429 20.6949C58.9429 21.4374 60.4279 21.5539 62.5826 21.0152C65.5671 20.2436 67.6636 19.3555 69.6436 18.0161C71.3906 16.8514 71.5216 16.8223 72.9921 17.5793C74.4479 18.3073 74.8993 18.6858 74.6663 18.9624C74.4479 19.2245 72.7446 19.8651 69.3815 20.9424C65.2323 22.2818 64.417 22.6167 63.8928 23.199C63.4124 23.7668 63.3396 24.1017 63.689 24.2327C63.9656 24.3346 64.4461 24.1745 66.2223 23.4028C66.9793 23.068 69.1486 22.2818 71.0412 21.6558C75.4525 20.2145 76.8501 19.472 76.8501 18.5985C76.8501 18.1617 76.064 17.6376 74.71 17.1571C73.1231 16.6039 72.9921 16.5166 72.9921 16.1817C72.9921 15.9924 73.458 15.6285 74.5207 15.0024C76.7628 13.6485 77.4471 12.775 76.7482 12.1635C76.1222 11.6103 74.346 11.4647 72.6718 11.8286ZM75.336 12.9642C75.5544 13.1826 75.1613 13.5611 73.8365 14.4347C72.0894 15.5702 71.8565 15.643 71.478 15.2645C70.8083 14.5948 70.9538 13.7067 71.7837 13.27C72.5553 12.8769 75.0303 12.6585 75.336 12.9642Z" fill="black"/>
<path d="M0.562191 14.6387C0.314692 14.8279 0.21278 15.1628 0.0817515 16.0218C-0.107512 17.3903 0.0235165 17.9435 0.562191 17.9435C0.882483 17.9435 0.940718 17.8707 0.998953 17.2738C1.07175 16.6187 1.3338 16.1237 1.59586 16.1237C1.87248 16.1237 1.85792 16.8516 1.50851 19.0645C0.620426 24.5969 0.402044 26.3294 0.372927 27.9163C0.343809 29.6779 0.44572 30.1001 0.998953 30.3913C1.36292 30.5805 2.01807 30.2748 2.35292 29.7652C2.48395 29.5614 2.89159 28.6005 3.27012 27.6105C4.20188 25.121 5.16276 23.1119 5.3957 23.1119C5.73055 23.1119 6.02173 23.4176 6.82246 24.5677C7.76878 25.9217 9.34112 27.5523 10.0545 27.9308C11.2192 28.5277 12.2092 28.1783 13.2865 26.7661C14.1746 25.616 14.757 24.5241 16.1983 21.2629C17.6396 18.0017 18.2511 16.3712 18.1346 16.0509C17.9599 15.6141 16.868 15.9344 16.868 16.4294C16.868 16.5022 16.1109 18.2201 15.1792 20.2438C12.1655 26.7807 12.0927 26.8971 11.0008 26.8971C9.77789 26.8971 9.02083 26.111 7.0554 22.8644C6.61863 22.1219 6.42937 21.9472 6.05084 21.8744C5.48305 21.7579 4.95894 21.9472 4.53673 22.4131C4.08541 22.8935 3.13909 25.0045 2.60042 26.737C2.23645 27.8871 2.09086 28.2074 1.87248 28.2074C1.72689 28.2074 1.5813 28.1201 1.55219 28.0182C1.50851 27.9308 1.66866 26.606 1.88704 25.0773C2.38204 21.7725 2.89159 17.3029 2.89159 16.3857C2.89159 16.0218 2.8188 15.5268 2.73145 15.2647C2.44027 14.4494 1.23189 14.1 0.562191 14.6387Z" fill="black"/>
<path d="M22.5751 20.4914C21.789 20.8554 20.3768 21.9182 19.7507 22.6607C19.0956 23.4323 18.324 24.9755 18.324 25.5288C18.324 26.082 18.7462 26.5479 19.4013 26.7371C20.2021 26.9555 21.2503 26.6061 22.3422 25.7763C22.7207 25.4996 22.8226 25.4705 22.9682 25.6452C23.0556 25.7471 23.0992 25.9364 23.0556 26.0529C22.9391 26.3586 23.4632 26.9701 23.7544 26.8536C23.9437 26.7808 24.0019 26.5624 24.0019 25.8636C24.0019 25.3832 24.0747 24.0292 24.162 22.8645C24.2931 21.1175 24.2931 20.7244 24.1329 20.5642C23.769 20.2294 23.2157 20.2003 22.5751 20.4914ZM23.2448 21.8017C23.405 22.8208 22.6042 24.0874 21.2212 25.0483C20.3476 25.6452 19.4887 25.9073 19.4887 25.5724C19.4887 24.7571 21.3231 22.355 22.4732 21.6416C22.9973 21.3067 23.1866 21.3504 23.2448 21.8017Z" fill="black"/>
<path d="M30.3057 20.491C29.9854 20.6803 29.6651 21.117 29.3157 21.8013C28.9954 22.4419 28.7188 22.8204 28.5877 22.7913C28.4858 22.7622 28.1073 22.3254 27.7579 21.8013C26.9863 20.6512 26.5786 20.5201 25.9817 21.2335C25.7196 21.5392 25.6032 21.8304 25.6323 22.0779C25.676 22.471 25.8216 22.5001 26.6223 22.3109C26.9571 22.2235 27.0154 22.2817 27.1901 22.7767C27.292 23.0825 27.5686 23.7376 27.8016 24.2326C28.1655 25.0625 28.2529 25.1498 28.646 25.1498C29.1846 25.1498 29.1992 25.1061 29.5195 23.7667C29.8107 22.5584 30.131 21.9906 30.5968 21.8159C31.3102 21.5392 31.5723 21.9615 32.0236 24.0579C32.1837 24.7713 32.3293 25.5138 32.373 25.6885C32.5331 26.3873 33.494 26.7658 33.6687 26.1981C33.8871 25.5429 32.9262 21.6848 32.3002 20.6657C32.0527 20.2581 31.9362 20.1998 31.3976 20.1998C31.0336 20.1998 30.5677 20.3163 30.3057 20.491Z" fill="black"/>
<path d="M49.4505 20.4474C49.072 20.8987 49.0283 21.0589 49.1885 21.3646C49.2904 21.5684 49.4942 21.6558 49.8145 21.6558C50.3968 21.6558 50.6443 21.4374 50.6443 20.9278C50.6443 20.229 49.9018 19.9378 49.4505 20.4474Z" fill="black"/>
<path d="M79.3251 23.7087C70.9392 24.4221 63.2959 25.4704 48.5333 27.9308C40.9336 29.1974 39.3322 29.5177 25.3121 32.6478C8.65686 36.3603 2.35291 37.8016 1.95983 37.9763C1.05718 38.3985 1.50851 40 2.54218 40C2.67321 40 3.02262 39.7525 3.31379 39.4468L3.85247 38.879L22.4003 34.7006C43.7726 29.8817 42.4769 30.1437 50.2803 28.7315C56.3513 27.6251 60.1221 27.0573 70.2258 25.7179C74.9283 25.1064 76.3988 24.9608 78.7427 24.9171C81.8292 24.8443 82.6736 24.7133 82.6736 24.2911C82.6736 23.7087 81.5526 23.5195 79.3251 23.7087Z" fill="black"/>
</svg>
